<?xml version="1.0" standalone="no"?><!DOCTYPE svg PUBLIC "-//W3C//DTD SVG 1.1//EN" "http://www.w3.org/Graphics/SVG/1.1/DTD/svg11.dtd"><svg t="1704519845054" class="icon" viewBox="0 0 1024 1024" version="1.1" xmlns="http://www.w3.org/2000/svg" p-id="5656" xmlns:xlink="http://www.w3.org/1999/xlink" width="48" height="48"><path d="M512 512m-512 0a512 512 0 1 0 1024 0 512 512 0 1 0-1024 0Z" fill="#1296db" p-id="5657"></path><path d="M313.929143 230.107429h205.970286a259.657143 259.657143 0 0 1 205.970285 78.848 305.700571 305.700571 0 0 1 64.365715 208.457142 297.106286 297.106286 0 0 1-69.193143 208.457143 267.702857 267.702857 0 0 1-207.579429 78.701715h-199.533714z m65.828571 57.124571v460.214857h122.441143a223.597714 223.597714 0 0 0 168.96-59.538286 243.748571 243.748571 0 0 0 53.906286-170.569142 252.342857 252.342857 0 0 0-49.883429-171.373715 212.845714 212.845714 0 0 0-165.741714-58.733714z" fill="#1296db" p-id="5658"></path></svg>