<?xml version="1.0" standalone="no"?><!DOCTYPE svg PUBLIC "-//W3C//DTD SVG 1.1//EN" "http://www.w3.org/Graphics/SVG/1.1/DTD/svg11.dtd"><svg t="1704940072851" class="icon" viewBox="0 0 1024 1024" version="1.1" xmlns="http://www.w3.org/2000/svg" p-id="15989" xmlns:xlink="http://www.w3.org/1999/xlink" width="48" height="48"><path d="M866.34496 374.65088c-19.92704-17.97632-40.94464-34.60096-62.6432-49.36704 27.78112-21.27872 43.4944-49.94048 43.4944-81.03424 0-64.52736-69.82656-116.992-155.81696-116.992-19.14368 0-37.28384 2.90816-53.10976 8.35072-1.792 0.5888-3.43552 1.16736-4.992 1.65888-5.76-5.92896-12.72832-11.96032-20.58752-17.87904-25.344-18.85184-53.632-28.82048-83.87072-31.87712-10.82368-1.09568-31.45216-0.70656-41.9072-0.18944-0.52736 0.0256-2.10432 0.18944-2.10432 0.18944-30.55104 2.23744-58.77248 13.02016-83.99872 31.87712-7.8592 5.91872-14.72 11.84768-20.58752 17.87904-1.4336-0.39424-2.88256-0.8704-4.31616-1.36704-16.71168-5.63712-34.74944-8.55552-53.78048-8.55552-85.86752 0-155.82208 52.48-155.82208 116.98688 0 30.99136 15.82592 59.65312 43.50464 80.94208a591.10912 591.10912 0 0 0-62.75072 49.4592C67.4816 446.5408 27.2128 524.27776 27.2128 605.93152c0 213.57056 178.82624 351.54944 455.48544 351.54944h48.64c276.6592 0 455.49056-138.07104 455.14752-351.54944 0.03584-81.93024-40.3456-159.67744-120.1408-231.28064zM325.5808 178.53952c12.66688 0 24.46336 1.80224 35.71712 5.6064 4.77184 1.4336 8.22272 2.75968 10.40896 3.9936l2.15552 1.05472c13.5424 5.89312 30.52032 0.47104 38.41024-7.97696l1.52576-1.7152c3.13856-4.18304 9.1904-10.84416 20.1216-19.01056 16.22528-12.16 33.97632-19.19488 52.8128-20.99712 18.66752-1.50016 52.44416-4.72576 92.99456 20.99712 11.62752 7.38304 16.99328 14.83264 21.53984 20.62848 7.78752 8.448 24.77568 13.96736 40.35584 7.12192 2.60608-1.41824 6.08256-2.65216 11.3664-4.36224 10.73664-3.712 22.52288-5.50912 35.16928-5.50912 57.27232 0 103.9104 32.20992 103.9104 71.8336 0 24.23808-17.65888 46.5664-47.1808 59.58656l-19.20512 8.49408c-202.04032 49.81248-418.67264 0.9728-457.96352-8.87808-28.84096-13.17376-46.03392-35.11808-46.03392-59.01824 0-39.6288 46.53568-71.84896 103.89504-71.84896z m205.7728 726.79424h-48.73216c-191.89248 0-396.98432-79.1552-396.98432-301.2352 0-68.34176 34.74944-134.39488 103.47008-196.4544a527.5648 527.5648 0 0 1 58.88512-46.02368c53.94432 15.45728 268.52864 66.31424 519.12192 0.83968a527.65696 527.65696 0 0 1 57.40032 45.0048l0.128 0.10752c68.80768 61.75744 103.68 127.90272 103.68 196.4544-0.00512 222.15168-205.07648 301.30688-396.96896 301.30688z" fill="#1296db" p-id="15990"></path><path d="M332.48256 605.3888v0.07168c-0.22016 0-0.44032-0.07168-0.6912-0.07168-14.2848 0-25.86624 10.91584-25.86624 24.35072 0 13.46048 11.58144 24.35584 25.86624 24.35584 0.2304 0 0.44544-0.0768 0.6912-0.0768v0.0768h162.12992v-48.70656H332.48256zM707.79392 629.73952c0-13.44512-11.58656-24.35072-25.87648-24.35072-0.59904 0-1.16736 0.13824-1.7664 0.16896h-158.63296v48.70656h162.12992v-0.34304c13.46048-0.82944 24.14592-11.25888 24.14592-24.18176zM332.48256 691.0976v0.06656c-0.22016 0-0.44032-0.06656-0.6912-0.06656-14.2848 0-25.86624 10.90048-25.86624 24.34048 0 13.47072 11.58144 24.3456 25.86624 24.3456 0.2304 0 0.44544-0.05632 0.6912-0.05632v0.05632h162.12992v-48.69632H332.48256v0.01024zM707.79392 715.43808c0-13.44-11.58656-24.34048-25.87648-24.34048-0.59904 0-1.16736 0.13312-1.7664 0.14848h-158.63296v48.71168h162.12992v-0.3328c13.46048-0.83456 24.14592-11.27424 24.14592-24.18688z" fill="#1296db" p-id="15991"></path><path d="M536.30464 660.46976l116.44928-162.69312-0.15872-0.09728c3.40992-4.13696 5.55008-9.26208 5.55008-14.90432 0-13.44-11.5968-24.35072-25.87648-24.35072-10.43456 0-19.38432 5.85216-23.48032 14.2336l-0.10752-0.06656-61.88544 88.30976c-14.01856 20.42368-27.04896 36.8896-39.13216 57.3184l-0.08192 0.7168-0.08704-0.7168c-12.06784-20.4288-25.10336-36.89472-39.12704-57.3184L406.48704 472.59648l-0.11776 0.06656c-4.09088-8.37632-13.02016-14.2336-23.46496-14.2336-14.29504 0-25.87648 10.9056-25.87648 24.35072 0 5.65248 2.13504 10.76736 5.54496 14.90432l-0.16384 0.09728 116.47488 162.69312v139.15136c-0.01536 0.4096-0.13824 0.78336-0.13824 1.18272 0 14.80192 12.88192 26.78784 28.78976 26.78784 15.90272 0 28.77952-11.9808 28.77952-26.78784 0-0.2816-0.08704-0.55808-0.09728-0.8448h0.07168v-139.48928l0.01536-0.00512z" fill="#1296db" p-id="15992"></path></svg>