<?xml version="1.0" standalone="no"?><!DOCTYPE svg PUBLIC "-//W3C//DTD SVG 1.1//EN" "http://www.w3.org/Graphics/SVG/1.1/DTD/svg11.dtd"><svg t="1704940217240" class="icon" viewBox="0 0 1024 1024" version="1.1" xmlns="http://www.w3.org/2000/svg" p-id="18103" xmlns:xlink="http://www.w3.org/1999/xlink" width="48" height="48"><path d="M512 53.312c-27.648 0-47.488 17.472-57.984 28.032a173.44 173.44 0 0 0-12.608 14.848c-7.872 9.856-15.872 19.968-26.432 25.6-11.328 5.952-25.472 1.92-37.632-1.536a274.56 274.56 0 0 0-6.272-1.728c-12.736-3.328-32.128-8.32-52.608-5.632a55.168 55.168 0 0 0-29.76 12.16 32.448 32.448 0 0 0-10.88 30.4c1.92 10.944 8.704 19.904 15.36 28.48l38.08 49.024 1.664 2.24c9.28 11.904 18.56 24 30.912 33.024 9.6 7.04 21.824 9.088 33.856 9.088h228.608c11.968 0 24.256-1.984 33.92-9.088 12.224-9.024 21.568-21.12 30.784-33.024l1.728-2.24 38.08-49.024c6.656-8.576 13.44-17.536 15.36-28.48a32.448 32.448 0 0 0-10.88-30.464 55.168 55.168 0 0 0-29.76-12.096c-20.48-2.688-39.872 2.304-52.608 5.632a272 272 0 0 0-6.272 1.728c-12.16 3.456-26.24 7.488-37.632 1.536-10.624-5.632-18.56-15.744-26.432-25.6a173.568 173.568 0 0 0-12.608-14.848C559.36 70.784 539.52 53.312 512 53.312z m402.56 667.52a681.792 681.792 0 0 0-196.224-374.72c-4.288-4.16-6.4-6.208-11.2-9.728a100.544 100.544 0 0 0-38.592-15.552C662.72 320 658.56 320 650.048 320H373.952c-8.448 0-12.672 0-18.56 0.832a100.544 100.544 0 0 0-38.464 15.552c-4.48 3.264-8.384 7.04-12.352 10.88a682.24 682.24 0 0 0-195.072 373.632c-12.16 72.32 15.808 135.872 63.808 180.224 47.552 43.904 114.944 69.568 185.216 69.568h306.944c70.272 0 137.664-25.6 185.216-69.568 48-44.352 75.904-107.84 63.872-180.224zM540.288 503.616v4.864c26.112 6.144 49.472 19.776 64.704 39.808a32 32 0 1 1-50.944 38.72c-6.656-8.832-22.912-18.176-45.76-18.176a65.92 65.92 0 0 0-38.72 11.392c-8.704 6.4-10.88 12.8-10.88 16.832 0 8.448 2.112 10.24 4.416 11.776 4.992 3.328 17.6 7.872 45.184 7.872 31.488 0 61.44 4.288 84.288 19.2 25.6 16.64 36.736 42.944 36.736 72.96 0 33.6-16.512 58.688-41.6 73.728a131.328 131.328 0 0 1-47.36 16.192v3.52a32 32 0 1 1-64 0v-4.352a128.896 128.896 0 0 1-60.48-28.928 32 32 0 1 1 42.688-47.68c9.28 8.32 26.944 15.808 49.728 15.808 21.696 0 37.376-3.968 46.464-9.408 7.232-4.352 10.56-9.344 10.56-18.816 0-12.992-3.712-16.832-7.68-19.456-6.912-4.48-21.44-8.768-49.28-8.768-31.808 0-60.032-4.672-81.024-18.816-23.68-16-32.64-40-32.64-64.832 0-29.184 16.064-52.992 36.864-68.352 12.864-9.472 28.16-16.32 44.8-20.224v-4.864a32 32 0 0 1 64 0z" fill="#1296db" p-id="18104"></path></svg>