<?xml version="1.0" standalone="no"?><!DOCTYPE svg PUBLIC "-//W3C//DTD SVG 1.1//EN" "http://www.w3.org/Graphics/SVG/1.1/DTD/svg11.dtd"><svg t="1704248298160" class="icon" viewBox="0 0 1024 1024" version="1.1" xmlns="http://www.w3.org/2000/svg" p-id="1548" width="48" height="48" xmlns:xlink="http://www.w3.org/1999/xlink"><path d="M557.288727 871.191273a63.860364 63.860364 0 0 1-90.577454 0l-379.950546-379.950546a63.860364 63.860364 0 0 1-18.757818-45.288727c0-16.430545 6.237091-32.814545 18.757818-45.335273l246.877091-246.877091a63.860364 63.860364 0 0 1 90.624 0l87.691637 87.784728 87.784727-87.784728c12.567273-12.474182 28.904727-18.757818 45.335273-18.757818 16.384 0 32.768 6.283636 45.288727 18.757818l246.877091 246.923637c12.520727 12.567273 18.757818 28.904727 18.757818 45.335272 0 16.384-6.237091 32.768-18.757818 45.288728l-379.950546 379.904z m102.865455-185.018182l38.818909-38.772364-83.502546-83.502545 41.053091-41.053091 83.502546 83.502545 27.322182-27.322181-118.597819-118.597819-7.912727 7.912728a125.346909 125.346909 0 0 1-88.901818 36.770909 125.346909 125.346909 0 0 1-88.901818-36.770909l-43.613091-43.613091a63.860364 63.860364 0 0 1-18.757818-45.288728c0-16.384 6.283636-32.814545 18.757818-45.288727l51.479273-51.525818-91.973819-91.973818L123.624727 445.905455 512 834.373818l31.511273-31.511273-83.502546-83.54909 41.099637-41.053091 83.502545 83.502545 34.536727-34.536727-83.502545-83.502546 41.053091-41.099636 83.502545 83.549091z m240.221091-240.174546L645.12 190.603636 456.238545 379.438545 504.087273 427.287273c13.218909 13.172364 30.487273 19.781818 47.802182 19.781818 17.314909 0 34.629818-6.562909 47.848727-19.781818l3.677091-3.723637 49.524363-49.570909 5.352728-5.399272 159.744 159.697454 82.385454-82.338909z" fill="#1296db" p-id="1549"></path></svg>