<?xml version="1.0" standalone="no"?><!DOCTYPE svg PUBLIC "-//W3C//DTD SVG 1.1//EN" "http://www.w3.org/Graphics/SVG/1.1/DTD/svg11.dtd"><svg t="1704263527854" class="icon" viewBox="0 0 1024 1024" version="1.1" xmlns="http://www.w3.org/2000/svg" p-id="8000" xmlns:xlink="http://www.w3.org/1999/xlink" width="48" height="48"><path d="M896 893.12c-12.48-59.52-89.28-122.88-161.92-133.12h-14.72a306.88 306.88 0 0 1-209.6 89.92 309.76 309.76 0 0 1-210.24-89.92h-14.08c-74.24 9.6-151.04 72-163.52 132.48v5.76a59.52 59.52 0 0 0 47.68 69.44 2012.8 2012.8 0 0 0 322.88 24.32 1948.8 1948.8 0 0 0 355.2-30.08A59.2 59.2 0 0 0 896 893.12zM258.88 545.92a70.08 70.08 0 0 0 10.56 0c48.64 123.84 142.08 207.04 239.04 207.36s188.16-84.8 237.12-209.28a70.4 70.4 0 0 0 12.48 0 90.56 90.56 0 0 0 82.56-96 96 96 0 0 0-58.56-92.16C784.32 140.16 667.84 32 508.48 32S232.32 140.16 234.56 357.44A96 96 0 0 0 176 448a90.56 90.56 0 0 0 82.88 97.92z" fill="#1296db" p-id="8001"></path></svg>