<?xml version="1.0" standalone="no"?><!DOCTYPE svg PUBLIC "-//W3C//DTD SVG 1.1//EN" "http://www.w3.org/Graphics/SVG/1.1/DTD/svg11.dtd"><svg t="1704272365891" class="icon" viewBox="0 0 1024 1024" version="1.1" xmlns="http://www.w3.org/2000/svg" p-id="15130" width="32" height="32" xmlns:xlink="http://www.w3.org/1999/xlink"><path d="M512 566.613333c138.808889 0 251.448889-112.64 251.448889-251.448889 0-138.808889-112.64-251.448889-251.448889-251.448888s-251.448889 112.64-251.448889 251.448888c0 138.808889 112.64 251.448889 251.448889 251.448889z m0-446.008889c106.951111 0 194.56 87.608889 194.56 194.56S618.951111 509.724444 512 509.724444s-194.56-87.608889-194.56-194.56S405.048889 120.604444 512 120.604444zM869.262222 698.595556c-86.471111-52.337778-207.075556-78.506667-357.262222-78.506667s-270.791111 26.168889-357.262222 78.506667C104.675556 728.177778 73.955556 782.791111 73.955556 839.68v94.435556c0 15.928889 12.515556 28.444444 28.444444 28.444444h819.2c15.928889 0 28.444444-12.515556 28.444444-28.444444v-94.435556c0-56.888889-30.72-111.502222-80.782222-141.084444z m23.893334 207.075555h-762.311112v-65.991111c0-37.546667 20.48-72.817778 52.337778-93.297778 77.368889-46.648889 188.871111-70.542222 328.817778-70.542222 139.946667 0 250.311111 23.893333 328.817778 70.542222 32.995556 19.342222 52.337778 54.613333 52.337778 93.297778v65.991111z" p-id="15131"></path></svg>