<?xml version="1.0" standalone="no"?><!DOCTYPE svg PUBLIC "-//W3C//DTD SVG 1.1//EN" "http://www.w3.org/Graphics/SVG/1.1/DTD/svg11.dtd"><svg t="1704261923510" class="icon" viewBox="0 0 1024 1024" version="1.1" xmlns="http://www.w3.org/2000/svg" p-id="6905" width="48" height="48" xmlns:xlink="http://www.w3.org/1999/xlink"><path d="M778.154667 665.6H704a38.4 38.4 0 1 1 0-76.8h122.624a38.229333 38.229333 0 0 1 23.978667 0h6.997333a38.4 38.4 0 0 1 38.4 38.4v153.6a38.4 38.4 0 1 1-76.8 0v-38.272a384.128 384.128 0 0 1-682.410667-148.522667 38.4 38.4 0 0 1 75.050667-16.341333A307.328 307.328 0 0 0 778.154667 665.6zM245.888 358.4H320a38.4 38.4 0 0 1 0 76.8H166.4a38.4 38.4 0 0 1-38.4-38.4V243.2a38.4 38.4 0 0 1 76.8 0v38.357333a384.128 384.128 0 0 1 681.898667 146.090667 38.4 38.4 0 1 1-74.922667 16.810667A307.328 307.328 0 0 0 245.888 358.4z" fill="#515151" p-id="6906"></path></svg>