<?xml version="1.0" standalone="no"?><!DOCTYPE svg PUBLIC "-//W3C//DTD SVG 1.1//EN" "http://www.w3.org/Graphics/SVG/1.1/DTD/svg11.dtd"><svg t="1704339556006" class="icon" viewBox="0 0 1024 1024" version="1.1" xmlns="http://www.w3.org/2000/svg" p-id="6300" xmlns:xlink="http://www.w3.org/1999/xlink" width="32" height="32"><path d="M809.49 744.44l-38.28-107.99V356.69c0-69.02-26.88-133.91-75.68-182.72s-113.7-75.68-182.72-75.68-133.91 26.88-182.71 75.68-75.68 113.7-75.68 182.72v279.64l-39.2 107.89a29.989 29.989 0 0 0 3.63 27.46 30.015 30.015 0 0 0 24.57 12.79h537.8c9.74 0 18.88-4.73 24.5-12.69a30.01 30.01 0 0 0 3.77-27.34z m-523.26-19.98l26.38-72.61c1.19-3.28 1.8-6.75 1.8-10.24V356.69c0-109.4 89-198.4 198.4-198.4s198.4 89 198.4 198.4v284.92c0 3.42 0.58 6.8 1.72 10.02l25.81 72.83H286.23zM403.51 819.87c0 59.92 48.57 108.49 108.49 108.49 59.92 0 108.49-48.57 108.49-108.49v-3.54H403.51v3.54z" p-id="6301" fill="#ffffff"></path></svg>