<?xml version="1.0" standalone="no"?><!DOCTYPE svg PUBLIC "-//W3C//DTD SVG 1.1//EN" "http://www.w3.org/Graphics/SVG/1.1/DTD/svg11.dtd"><svg t="1704331238694" class="icon" viewBox="0 0 1024 1024" version="1.1" xmlns="http://www.w3.org/2000/svg" p-id="2351" xmlns:xlink="http://www.w3.org/1999/xlink" width="32" height="32"><path d="M512 195.047619c150.79619 0 288.280381 92.013714 412.452571 276.041143a73.142857 73.142857 0 0 1 2.779429 77.385143l-2.779429 4.437333-6.92419 10.118095C795.184762 740.303238 660.016762 828.952381 512 828.952381c-150.79619 0-288.280381-92.013714-412.452571-276.041143a73.142857 73.142857 0 0 1-2.779429-77.385143l2.779429-4.437333 6.92419-10.118095C228.815238 283.696762 363.983238 195.047619 512 195.047619z m0 73.142857c-120.880762 0-235.471238 75.142095-345.112381 234.008381L160.182857 512l6.704762 9.825524C276.601905 680.740571 391.192381 755.809524 512 755.809524c120.880762 0 235.471238-75.142095 345.112381-234.008381L863.817143 512l-6.704762-9.825524C747.398095 343.259429 632.807619 268.190476 512 268.190476z m0 88.551619c18.334476 0 35.937524 3.047619 52.370286 8.655238L512 512l152.454095-47.640381A161.694476 161.694476 0 1 1 512 356.717714z" p-id="2352"></path></svg>