<?xml version="1.0" standalone="no"?><!DOCTYPE svg PUBLIC "-//W3C//DTD SVG 1.1//EN" "http://www.w3.org/Graphics/SVG/1.1/DTD/svg11.dtd"><svg t="1704719551876" class="icon" viewBox="0 0 1024 1024" version="1.1" xmlns="http://www.w3.org/2000/svg" p-id="42168" xmlns:xlink="http://www.w3.org/1999/xlink" width="32" height="32"><path d="M392.106667 725.76H275.328a51.2 51.2 0 0 1-44.373333-25.6 53.205333 53.205333 0 0 1 0-51.626667l238.805333-410.154666a51.882667 51.882667 0 0 1 41.386667-25.6h3.498666a50.901333 50.901333 0 0 1 40.448 20.650666l66.986667 89.173334a110.378667 110.378667 0 0 1 5.12 123.733333l-142.506667 228.266667a108.629333 108.629333 0 0 1-92.586666 51.157333z m122.88-438.613333l-218.026667 374.570666h94.72a45.226667 45.226667 0 0 0 38.4-21.333333l142.506667-228.309333a45.824 45.824 0 0 0-2.133334-51.2l-55.466666-73.813334zM748.8 725.717333h-163.84a51.456 51.456 0 0 1-44.373333-77.653333l81.92-136.533333a50.304 50.304 0 0 1 43.946666-23.338667 50.304 50.304 0 0 1 43.946667 23.338667l81.92 136.533333a51.2 51.2 0 0 1 0.426667 51.626667 49.450667 49.450667 0 0 1-43.946667 26.026666z m-81.92-163.413333l-59.306667 99.413333h119.04l-59.733333-99.370666z" p-id="42169" fill="#2c2c2c"></path><path d="M512 970.666667A458.666667 458.666667 0 1 1 970.666667 512 459.178667 459.178667 0 0 1 512 970.666667z m0-853.333334A394.666667 394.666667 0 1 0 906.666667 512 395.093333 395.093333 0 0 0 512 117.333333z" p-id="42170" fill="#2c2c2c"></path></svg>