<?xml version="1.0" standalone="no"?><!DOCTYPE svg PUBLIC "-//W3C//DTD SVG 1.1//EN" "http://www.w3.org/Graphics/SVG/1.1/DTD/svg11.dtd"><svg t="1707207013844" class="icon" viewBox="0 0 1024 1024" version="1.1" xmlns="http://www.w3.org/2000/svg" p-id="7757" xmlns:xlink="http://www.w3.org/1999/xlink" width="32" height="32"><path d="M148.44897 297.890909c22.652121 22.565236 45.304242 44.745697 68.353551 67.708121-30.595879 39.191273-42.517721 83.533576-32.18463 132.629722 6.752194 33.655467 24.240873 62.166109 50.070497 84.731345 52.056436 45.533867 134.714958 57.406061 204.253867 3.562279 24.638061 24.948364 49.673309 49.493333 74.708557 74.832679 25.829624-26.127515 50.864873-51.075879 75.900121-75.620849 77.091685 58.988606 164.913648 39.985648 214.586958-10.693042 52.062642-53.055612 64.381673-138.972315 10.333091-208.256776 22.652121-22.571442 45.304242-45.136679 67.559176-67.708121 87.424776 133.033115 94.971345 363.464145-67.956364 523.816339-156.169309 154.015806-415.663321 161.543758-581.371346 15.440679C59.838836 686.297212 52.683248 448.344436 148.44897 297.890909zM856.436364 253.759612L518.801842 589.575758C406.391467 477.370182 293.583903 364.773624 179.975758 252.177067c164.845382-220.457891 510.423661-220.848873 676.460606 1.582545zM784.042667 397.187879c34.182982 43.349333 29.354667 108.376436-11.257794 148.113842-40.215273 38.936824-104.956897 42.548752-145.972752 8.831224 52.279855-52.583952 104.956897-104.758303 157.230546-156.945066z m-531.753891 0C304.587248 449.207079 356.891927 501.629673 409.6 554.449455c-41.841261 33.872679-107.023515 29.435345-146.854012-10.488243-39.830497-40.320776-44.255418-105.242376-10.457212-146.773333z m3.95326-146.587152l262.162619 260.747637c87.387539-86.127709 174.775079-172.652606 262.559806-259.171297-143.000048-149.342642-392.843636-142.230497-524.722425-1.582546z" p-id="7758" fill="#2c2c2c"></path></svg>