<?xml version="1.0" standalone="no"?><!DOCTYPE svg PUBLIC "-//W3C//DTD SVG 1.1//EN" "http://www.w3.org/Graphics/SVG/1.1/DTD/svg11.dtd"><svg t="1707368960703" class="icon" viewBox="0 0 1481 1024" version="1.1" xmlns="http://www.w3.org/2000/svg" p-id="4744" xmlns:xlink="http://www.w3.org/1999/xlink" width="46.28125" height="32"><path d="M1481.040358 858.58061s-225.586621-33.42174-344.787164-43.008c-114.479729-9.198644-250.133695-14.509559-395.668972-14.509559-145.529492 0-281.183458 5.310915-395.628474 14.509559-119.235254 9.719322-344.792949 56.088588-344.792949 56.088588v58.292791c0 51.813243 331.515661 93.912949 740.421423 93.912949 408.911548 0 740.421424-42.099706 740.421424-93.912949l0.034712-71.373379zM512.92646 85.414328c-270.370712 96.336994-450.924475 352.325424-450.941831 639.352045v96.117152a1642.762124 1642.762124 0 0 1 293.916927-42.614598 1586.737175 1586.737175 0 0 1-1.041356-55.735684c0.09835-252.204836 60.977175-479.151006 158.06626-637.118915zM1419.154889 724.766373A675.759006 675.759006 0 0 0 1264.264765 293.257401a1407.07435 1407.07435 0 0 1 64.245875 429.33948c0 26.496723-0.676881 52.68104-2.036429 78.56452a832.488859 832.488859 0 0 1 91.610396 19.432859l1.070282-95.827887z" fill="#F0D50C" p-id="4745"></path><path d="M1419.154889 724.766373A675.759006 675.759006 0 0 0 1264.264765 293.257401a1407.07435 1407.07435 0 0 1 64.245875 429.33948c0 26.496723-0.676881 52.68104-2.036429 78.56452a832.488859 832.488859 0 0 1 91.610396 19.432859l1.070282-95.827887z" fill="#F0D50C" p-id="4746"></path><path d="M1264.264765 293.222689C1082.45559 72.837062 782.174821-10.216859 512.961172 85.414328c-97.152723 157.96791-157.996836 384.914079-157.996837 637.153627 0 18.71548 0.341333 37.292113 1.029786 55.729898 101.040452-7.804384 218.007864-12.629333 343.271412-13.502915h41.388113a3958.656723 3958.656723 0 0 1 585.878418 36.49374c1.324836-25.906621 2.001718-52.090938 2.048-78.56452a1407.045424 1407.045424 0 0 0-64.315299-429.501469z" fill="#F0D50C" p-id="4747"></path><path d="M1013.546753 338.10513l-43.002214-268.785537a51.813243 51.813243 0 0 0-36.401175-41.741017 681.579028 681.579028 0 0 0-383.843797 0 51.813243 51.813243 0 0 0-36.366463 41.741017l-43.042712 268.785537M740.653646 759.090621h-41.422825c-389.669605 2.724881-699.039096 43.655955-699.039096 93.756746v72.60565c-0.624814 4.252203 0.28348 8.591186 2.562893 12.235932a173.096497 173.096497 0 0 1 66.710418-30.63322c61.555706-14.978169 124.129627-25.455367 187.212655-31.344814a125.356113 125.356113 0 0 1 98.217221 32.056407 264.215141 264.215141 0 0 0 178.436339 69.336949h414.511728a264.261424 264.261424 0 0 0 178.436339-69.336949 125.292475 125.292475 0 0 1 98.251933-32.091119 1304.743774 1304.743774 0 0 1 187.177943 31.350599 156.510011 156.510011 0 0 1 63.273944 27.688497c1.070282 1.064497 2.302554 2.007503 3.239774 2.97365a18.200588 18.200588 0 0 0 2.591819-12.305356v-72.605649c0.225627-51.651254-331.284249-93.681537-740.161085-93.681537z" fill="#F0D50C" p-id="4748"></path><path d="M896.608268 543.483661l-156.151322 96.117153v124.835435z" fill="#6E6F70" p-id="4749"></path><path d="M740.618934 764.436249v-124.835435l-156.157107-96.117153zM584.461827 486.457853l156.157107 90.285559V233.894328z" fill="#0A0A0A" p-id="4750"></path><path d="M896.608268 486.457853L740.462731 233.865401V576.708701L896.608268 486.428927z" fill="#6E6F70" p-id="4751"></path></svg>