<?xml version="1.0" standalone="no"?><!DOCTYPE svg PUBLIC "-//W3C//DTD SVG 1.1//EN" "http://www.w3.org/Graphics/SVG/1.1/DTD/svg11.dtd"><svg t="1704719487446" class="icon" viewBox="0 0 1024 1024" version="1.1" xmlns="http://www.w3.org/2000/svg" p-id="41113" xmlns:xlink="http://www.w3.org/1999/xlink" width="32" height="32"><path d="M320 659.2a32 32 0 0 1-16-4.266667l-192-110.933333a32 32 0 0 1-16-27.733333V294.4a32 32 0 0 1 16-27.690667l192-110.933333a32 32 0 0 1 32 0l192 110.933333a32 32 0 0 1 16 27.690667v68.266667a32 32 0 0 1-64 0V312.874667L320 220.416 160 312.874667v184.917333l160 92.458667 176-101.674667a32 32 0 0 1 32 55.466667l-192 110.933333a32 32 0 0 1-16 4.224z" p-id="41114" fill="#2c2c2c"></path><path d="M704 881.066667a32 32 0 0 1-16-4.266667l-192-110.933333a32 32 0 0 1-16-27.733334v-72.533333a32 32 0 0 1 32-32 32 32 0 0 1 32 32v54.058667l160 92.458666 160-92.458666v-184.917334l-160-92.458666-176 101.674666a32 32 0 0 1-43.690667-11.690666 32 32 0 0 1 11.690667-43.690667l192-110.933333a32 32 0 0 1 32 0l192 110.933333a32 32 0 0 1 16 27.690667v221.866666a32 32 0 0 1-16 27.690667l-192 110.933333a32 32 0 0 1-16 4.309334z" p-id="41115" fill="#2c2c2c"></path></svg>