<?xml version="1.0" standalone="no"?><!DOCTYPE svg PUBLIC "-//W3C//DTD SVG 1.1//EN" "http://www.w3.org/Graphics/SVG/1.1/DTD/svg11.dtd"><svg t="1704720302271" class="icon" viewBox="0 0 1024 1024" version="1.1" xmlns="http://www.w3.org/2000/svg" p-id="43385" xmlns:xlink="http://www.w3.org/1999/xlink" width="32" height="32"><path d="M789.333333 352H170.666667a73.173333 73.173333 0 0 1-66.56-41.386667 73.898667 73.898667 0 0 1 6.826666-78.08l64-85.333333a75.093333 75.093333 0 0 1 59.733334-29.866667H853.333333a73.173333 73.173333 0 0 1 66.56 41.386667 73.856 73.856 0 0 1-6.784 78.08l-64 85.333333a75.093333 75.093333 0 0 1-59.776 29.866667z m-554.666666-170.666667a10.965333 10.965333 0 0 0-8.533334 4.266667l-64 85.333333a9.728 9.728 0 0 0-0.853333 11.093334 10.709333 10.709333 0 0 0 9.386667 5.973333h618.666666a11.136 11.136 0 0 0 8.533334-4.266667l64-85.333333a9.728 9.728 0 0 0 0.853333-11.093333 10.581333 10.581333 0 0 0-9.386667-5.973334zM853.333333 629.333333H234.666667a74.922667 74.922667 0 0 1-59.733334-29.866666l-64-85.333334a74.538667 74.538667 0 0 1 59.306667-119.466666h618.666667a75.093333 75.093333 0 0 1 59.733333 29.866666l64 85.333334a74.453333 74.453333 0 0 1 7.253333 78.08 73.258667 73.258667 0 0 1-66.56 41.386666z m-682.666666-170.666666a10.154667 10.154667 0 0 0-9.386667 5.973333 9.728 9.728 0 0 0 0.853333 11.093333l64 85.333334a10.965333 10.965333 0 0 0 8.533334 4.266666H853.333333a10.154667 10.154667 0 0 0 9.386667-5.930666 9.770667 9.770667 0 0 0-0.853333-11.093334l-64-85.333333a11.093333 11.093333 0 0 0-8.533334-4.266667zM789.333333 906.666667H170.666667a73.173333 73.173333 0 0 1-66.56-41.386667 73.898667 73.898667 0 0 1 6.826666-78.08l64-85.333333a75.093333 75.093333 0 0 1 59.733334-29.866667H853.333333a73.173333 73.173333 0 0 1 66.56 41.386667 73.856 73.856 0 0 1-6.784 78.08l-64 85.333333a75.093333 75.093333 0 0 1-59.776 29.866667z m-554.666666-170.666667a10.965333 10.965333 0 0 0-8.533334 4.266667l-64 85.333333a9.728 9.728 0 0 0-0.853333 11.093333 10.709333 10.709333 0 0 0 9.386667 5.973334h618.666666a11.136 11.136 0 0 0 8.533334-4.266667l64-85.333333a9.728 9.728 0 0 0 0.853333-11.093334 10.581333 10.581333 0 0 0-9.386667-5.973333z" p-id="43386" fill="#2c2c2c"></path></svg>